<svg xmlns="http://www.w3.org/2000/svg" width="36" height="35.856" viewBox="0 0 36 35.856"><defs><style>.a{fill:#878f9d;}</style></defs><g transform="translate(0 -0.048)"><path class="a" d="M8.045,21.1a15.135,15.135,0,0,1-2.1-1.674,1.5,1.5,0,1,0-2.07,2.171A18.046,18.046,0,0,0,6.4,23.606a1.5,1.5,0,0,0,1.65-2.51Z" transform="translate(1.705 9.48)"/><path class="a" d="M4.775,18.306A14.85,14.85,0,0,1,3.6,15.893,1.5,1.5,0,0,0,.8,16.943a17.78,17.78,0,0,0,1.407,2.9A1.5,1.5,0,1,0,4.775,18.3Z" transform="translate(0.36 7.461)"/><path class="a" d="M16.4,21.591a15,15,0,0,1-2.618.6,1.5,1.5,0,1,0,.4,2.973,18.13,18.13,0,0,0,3.142-.716A1.5,1.5,0,1,0,16.4,21.6Z" transform="translate(6.24 10.727)"/><path class="a" d="M12.215,22.19A14.98,14.98,0,0,1,9.6,21.6a1.5,1.5,0,1,0-.924,2.85,17.85,17.85,0,0,0,3.15.711,1.5,1.5,0,1,0,.4-2.973Z" transform="translate(3.781 10.726)"/><path class="a" d="M23.754,15.023a1.5,1.5,0,0,0-1.932.874,15.128,15.128,0,0,1-1.168,2.416,1.5,1.5,0,1,0,2.577,1.544,17.91,17.91,0,0,0,1.406-2.9,1.5,1.5,0,0,0-.882-1.932Z" transform="translate(10.22 7.439)"/><path class="a" d="M19.849,19.42a15.168,15.168,0,0,1-2.1,1.675,1.5,1.5,0,1,0,1.65,2.5,18.122,18.122,0,0,0,2.52-2.009,1.5,1.5,0,1,0-2.073-2.169Z" transform="translate(8.51 9.478)"/><path class="a" d="M18,.048a18.019,18.019,0,0,0-18,18c0,.552.026,1.1.073,1.634a1.5,1.5,0,0,0,2.988-.269Q3,18.738,3,18.048a15,15,0,1,1,30,0q0,.691-.062,1.365a1.5,1.5,0,0,0,2.988.269c.048-.537.073-1.081.073-1.634a18.019,18.019,0,0,0-18-18Z"/><path class="a" d="M3.959,11.006a12.083,12.083,0,0,0,8.567,11.55.375.375,0,0,0,.483-.369,14.592,14.592,0,0,1,1.5-6.209.75.75,0,0,0-.068-.775,12.054,12.054,0,0,0-9.73-4.941.75.75,0,0,0-.751.744Z" transform="translate(1.979 5.107)"/><path class="a" d="M13.162,16.3a.377.377,0,0,0,.579,0,14.367,14.367,0,0,1,3.693-3.17.75.75,0,0,0,.361-.714,13.3,13.3,0,0,0-3.813-8.147.75.75,0,0,0-1.062,0A13.324,13.324,0,0,0,9.1,12.415a.75.75,0,0,0,.361.715,14.43,14.43,0,0,1,3.7,3.173Z" transform="translate(4.549 2.003)"/><path class="a" d="M13.75,24.943V23.619a.75.75,0,0,1,.62-.736,12.08,12.08,0,0,0,9.942-11.874.75.75,0,0,0-.75-.75A12.087,12.087,0,0,0,11.5,21.943v3a1.125,1.125,0,0,0,2.25,0Z" transform="translate(5.75 5.105)"/></g></svg>