<svg xmlns="http://www.w3.org/2000/svg" width="24" height="24" viewBox="0 0 24 24" fill="none" ><path d="M12 0C5.4 0 0 5.4 0 12C0 18.6 5.4 24 12 24C18.6 24 24 18.6 24 12C24 5.4 18.6 0 12 0ZM12 1.8C17.6 1.8 22.2 6.3 22.2 12C22.2 14.5 21.3 16.7 19.9 18.5C19.1 16.3 17.4 14.4 15.2 13.5C16.1 12.7 16.7 11.5 16.7 10.1C16.7 7.6 14.6 5.5 12.1 5.5C9.6 5.5 7.5 7.6 7.5 10.1C7.5 11.4 8.1 12.6 9 13.5C6.8 14.4 5.1 16.2 4.3 18.5C2.8 16.7 2 14.5 2 12C1.8 6.4 6.4 1.8 12 1.8ZM12 7.4C13.5 7.4 14.8 8.6 14.8 10.2C14.8 11.7 13.6 13 12 13C10.5 13 9.2 11.8 9.2 10.2C9.2 8.6 10.5 7.4 12 7.4ZM12 14.8C15.1 14.8 17.7 17 18.3 20C16.6 21.4 14.4 22.2 12 22.2C9.6 22.2 7.4 21.3 5.7 20C6.3 17 8.9 14.8 12 14.8Z" fill="currentColor"/></svg>